PathFileType	4	(X/Y/Z)	T1_P1_NoVision_Movement_0_0-662.trc
DataRate	CameraRate	NumFrames	NumMarkers	Units	OrigDataRate	OrigDataStartFrame	OrigNumFrames
60	60	7	27	m	60	579	662
Frame#	Time	RHip			RKnee			RAnkle			RBigToe			RSmallToe			RHeel			LHip			LKnee			LAnkle			LBigToe			LSmallToe			LHeel			Neck			Head			Nose			RShoulder			RElbow			RWrist			RThumb			RIndex			RPinky			LShoulder			LElbow			LWrist			LThumb			LIndex			LPinky		
		X1	Y1	Z1	X2	Y2	Z2	X3	Y3	Z3	X4	Y4	Z4	X5	Y5	Z5	X6	Y6	Z6	X7	Y7	Z7	X8	Y8	Z8	X9	Y9	Z9	X10	Y10	Z10	X11	Y11	Z11	X12	Y12	Z12	X13	Y13	Z13	X14	Y14	Z14	X15	Y15	Z15	X16	Y16	Z16	X17	Y17	Z17	X18	Y18	Z18	X19	Y19	Z19	X20	Y20	Z20	X21	Y21	Z21	X22	Y22	Z22	X23	Y23	Z23	X24	Y24	Z24	X25	Y25	Z25	X26	Y26	Z26	X27	Y27	Z27
580	9.666666666666666	-89.04714169062535	3886.3125291873453	-580.3002368414394	255.96030094686841	3982.376598634993	-530.957053378765	624.7486500321219	4138.644870624669	-531.3412206622876	702.730575031135	4095.505223456116	-478.94058260924044	702.4176506665173	4057.8439971200414	-548.6047741330991	651.2562924192785	4160.735975833457	-524.4998684305241	-124.98610571183492	3920.160045578202	-359.3502886861053	221.2187624576132	4005.809676829971	-354.20135842226483	570.5685217584175	4188.857369188183	-380.506817878819	675.8868640110541	4158.895186210182	-346.3639504326883	639.9773729432303	4219.152848624116	-329.78009717429916	603.9749402055985	4251.222100511474	-422.3415567233109	-670.2542291701383	3719.6519051134464	-498.4175727181735	-907.0290908496121	3542.272396123561	-431.10540544768895	-745.2775246035419	3566.7327220275697	-405.35632305780297	-573.599767409842	3675.492247265412	-632.2896007455021	-312.60341275754536	3773.6585266948455	-713.7615600039532	-53.49014635279729	3765.6721570292984	-603.7147781971987	62.47883079572247	3807.490030378427	-551.6405050093483	75.46457107739337	3801.1784709065237	-560.4048541210282	74.43091641243532	3810.835227700678	-596.7178674695622	-633.4177424537779	3882.2915385674755	-392.67717075020335	-405.60818466972756	4006.276115367375	-343.73140053421486	-150.5889298294603	4005.0756274758755	-256.21655472014487	-18.72924224266274	4006.5361387021703	-272.29502230511963	2.837726293007629	3981.4327119568666	-219.74454073254174	-18.129587784750985	3998.998138376643	-219.49277198552926
581	9.683333333333334	-89.70143041161619	3866.8469716533205	-565.8551581321424	253.430279312864	3961.3691865913706	-515.6161786860007	624.7561500585421	4138.240803904743	-531.1760460161956	710.2448021664925	4099.629604679118	-485.00483013058437	702.4365027945139	4057.3935354516775	-548.3922215415807	651.3418459492594	4160.75531174532	-524.4513294097694	-130.3110247302943	3919.347104234927	-359.4945526832015	226.9259835964731	4008.054771398668	-353.5211544840229	570.6088730777508	4188.929707786451	-380.5244574431154	675.8548534492458	4158.567986542229	-346.30247175129375	645.7791511159149	4222.175889611713	-328.91941684721314	603.8916478865023	4251.547525834451	-422.47599574812466	-679.7449300132392	3714.519348412318	-491.24199287841816	-907.0858615396157	3542.2401842129516	-431.16251416600625	-750.194066100672	3565.369188517655	-405.34156491924864	-573.6139208647152	3675.5970493333393	-632.3228496512219	-312.5533680597978	3773.6885635987164	-713.757086353549	-53.477148510961385	3765.49021691665	-603.6097398405307	62.540948797062754	3807.470222991203	-551.5729638713972	75.5069323684196	3801.1264380758203	-560.3381439978953	74.3243060383544	3810.7326958913104	-596.6668083050464	-631.0659508180639	3862.7515067450954	-378.8450393862607	-405.53471580962133	4006.161857264207	-343.64859312626237	-150.60643871691167	4005.1964612151364	-256.2698990971747	-18.735358238724903	4006.4682576833434	-272.2344980235608	2.7820495463210273	3981.3873163096023	-219.66731629277808	-17.988110602307525	3999.4466157165307	-219.72545762460783
582	9.7	-89.11047571375171	3886.1694302148767	-580.2884634474809	253.3818053365387	3961.4291814234957	-515.6659812170215	624.8066371384707	4138.705714645447	-531.407819066137	702.3997937142617	4095.1738762143245	-478.88244635970364	702.1470860442435	4057.7257827059134	-548.4687537648903	656.4434597714576	4182.975416055058	-539.8242632607784	-130.41333854423914	3919.4961484658074	-359.62281679225765	216.21121571645432	4005.8308893955714	-354.67934868803513	570.6652140321261	4189.127978213282	-380.54256312499217	675.8276176044862	4158.505857084926	-346.20327090614745	644.6672111329277	4217.860163957609	-328.9165619990974	604.2945494699264	4251.848619431062	-422.54926291319305	-675.3989380982385	3718.360539816092	-498.7584254461516	-907.0658701338837	3542.2972153638934	-431.13612994491	-745.2799389413753	3566.671334316866	-405.434848398226	-573.6294711285063	3675.7705995782376	-632.4326750950498	-312.5524557677204	3773.88051721903	-713.8085932341052	-53.377520988123116	3765.6807497867712	-603.6320778018322	62.44217796834304	3807.1500238326466	-551.4435447959572	75.44683068571847	3800.9660779144324	-560.1999744403238	74.43416374959408	3811.0101171523	-596.6982297622875	-631.0107435807497	3862.7140165985106	-378.85629565391554	-401.0600049835998	4007.153057038044	-343.6042239579832	-150.53992455075402	4005.3157186833346	-256.26020830372386	-18.660663457105112	4006.77361629624	-272.39747573345073	2.8541055830945434	3981.4140467535854	-219.66522918014982	-12.82491441912803	4000.0011798753158	-219.35687546612064
583	9.716666666666667	-89.11549804885824	3886.184404193666	-580.2960591808029	262.8290551158366	3986.443500770254	-538.9241135271758	622.8721278802193	4166.26265593577	-539.2641137818474	702.2650208208762	4094.8326835231896	-478.78122249760423	707.320613782253	4089.6487378679844	-556.0598899706054	651.281422541799	4161.586456456543	-524.6620647268123	-125.0611068737386	3920.1479050755343	-359.38221271117175	221.1524276349996	4005.766379894509	-354.2967640699467	577.031242182686	4193.302521137905	-382.39853473943236	675.8403191102761	4158.474256746681	-346.3018983820222	639.9348807719258	4218.60428901219	-329.6442765923737	599.5423408536982	4229.894281155049	-408.2826196992474	-679.7267695098473	3714.4126711593217	-491.2000257829126	-907.0693668847975	3542.3642400477224	-431.1978164026655	-750.0881968978326	3565.3239312354112	-405.33914020701445	-573.5792991225107	3675.454194878799	-632.2344582210571	-312.52805838711316	3773.920639785649	-713.7917244104679	-52.79514317505908	3765.21501709958	-609.1101983109687	62.36083687790683	3807.1728213666497	-551.5174166214398	70.50908466013341	3800.7206017144617	-560.5279828417071	74.41407986493213	3810.73642688124	-596.5535145042757	-631.0567253544024	3862.582736607086	-378.83839533164206	-401.08445828228895	4007.0521724857995	-343.5916623036068	-146.20030406994837	3988.4565072343044	-244.4258118722105	-18.5483545245104	4006.1256097426053	-272.38260077134777	7.9514080775241265	3984.3310021406064	-220.8465754233266	-17.962367301394725	3998.863088961808	-219.54651937262176
584	9.733333333333333	-89.5816679261709	3867.3550436983714	-565.991131097618	263.0623408940308	3986.7229521218037	-539.0659356042736	629.2545124612659	4169.310763364295	-538.5835035850031	703.6866163801412	4096.0548799269	-485.5589942568165	696.8837685870419	4036.7445197977913	-533.3785648395467	656.2959123423819	4182.945261160807	-539.6073653457826	-124.91604947726113	3920.152637787585	-359.3078823069824	221.3386649701736	4005.8233068468408	-354.25956345620926	576.9398411238811	4193.237296579804	-382.47398254317335	675.744602179614	4158.068537428457	-346.124486255361	639.4554434741558	4218.180342823609	-329.3772928958567	604.1603644624525	4251.581424167748	-422.4074530531266	-675.5449674403983	3717.0173394967633	-492.1630499739339	-907.1174846023936	3542.298057099841	-431.17405559648086	-750.2013743088869	3565.2625743403787	-405.3138616824088	-573.539812034999	3675.534945706053	-632.3621013985721	-312.36637000902545	3773.8678043590444	-713.7080929486025	-53.163402045669535	3765.6232583840197	-603.4860070117962	66.80954152272321	3810.119685451599	-552.9149764782563	75.58754613765196	3800.7446462359303	-560.037534130556	78.80018319893682	3811.045532077115	-596.3003822788104	-631.0756545861399	3862.7060700433144	-378.88101635890683	-401.0078334178359	4007.178647475955	-343.64734576885724	-146.08647804430865	3988.52675591294	-244.43020670766	-13.292140801395181	4010.5329865524795	-274.13892851378637	8.33487838561682	3984.2956458613253	-220.71841477349358	-17.832532037832053	3999.1912758164563	-219.64294559550413
585	9.75	-83.64354121248601	3888.537109146845	-579.968283537943	256.9478287852809	3982.77763636808	-537.2352415523466	629.3304717262005	4169.731175431744	-538.7111754853162	702.5284214602051	4095.3223298726175	-478.9835584473279	707.4824467677906	4089.985431084087	-556.156903770404	656.0969204369978	4193.115533746589	-531.8270868703515	-119.29613977228786	3922.2825131353134	-358.74664503918854	221.4189419499641	4005.638534019049	-354.18993043705825	570.8791551036413	4189.09371608601	-380.48295887957846	675.8079246036779	4157.95229015995	-345.9365743727859	639.5678589883553	4193.895288304125	-313.7615199746091	604.2023723220613	4251.959276447086	-422.51543217866146	-670.207980298332	3719.610440224697	-498.4055164950436	-907.0636904083988	3542.406478260834	-431.1786663139363	-750.0086108135094	3565.7054681919053	-405.4767203397738	-573.4651231837181	3675.2715642838643	-632.2509497065299	-312.4507981176584	3773.666363412845	-713.6851984025916	-51.92193027552105	3783.5916627644624	-623.9175484128158	62.444409272586135	3807.3880825990773	-551.6238556447506	75.52869907821544	3801.183809604496	-560.3904650047647	78.77815526535868	3811.055521398861	-596.4489325578236	-631.022453416029	3862.8943771118356	-378.94233435555964	-401.03702346864617	4007.2282596152213	-343.6772401280752	-146.0977982412759	3988.4929606663104	-244.3679268070975	-13.343783363601238	4009.7915355741584	-273.95059965460626	8.261450899141312	3984.040802674831	-220.65037157290595	-12.685457349877488	3998.6670675082623	-218.92867431218212
586	9.766666666666667	-83.54574010947978	3888.7581292437512	-580.0327710605325	260.11835423919973	3965.9782753843847	-523.7522360084492	622.9240875334204	4166.521445314409	-539.3217973247692	703.6326251670789	4096.219792786247	-485.6348576836497	707.3315927617267	4089.720521876469	-556.1147783902973	656.4862945393811	4184.095832955518	-540.1302547919963	-119.25221857339523	3922.4697027743796	-358.81461042913566	227.0046675655219	4008.4016134792046	-353.6499233364387	576.9777124018927	4193.40522934406	-382.5658395330331	675.6925753894968	4157.792227224839	-346.05092180690184	639.6229619544392	4217.931566344064	-329.4269870052582	604.164761666529	4251.995572210568	-422.58585226669265	-679.4716405829578	3715.2647404268323	-497.69457947629536	-907.0954990597702	3542.494718876946	-431.2233999499769	-750.1266024559208	3565.6134173720284	-405.395178765664	-573.5293601388258	3675.485940309947	-632.414268064509	-312.4482818216189	3773.72442852859	-713.7043762276085	-52.777538972774586	3765.3326771660245	-609.228006700661	62.409388732831	3807.1127677128597	-551.3353035244198	75.55225795396083	3800.769972291021	-559.9610727238614	78.77188394874874	3810.8748048826724	-596.2347582620197	-631.0646143358891	3862.8086992198027	-378.88920577994526	-400.9536300995464	4007.409559252017	-343.8349202700248	-146.0358036137648	3988.7937581052083	-244.4861439278891	-13.196480386967577	4010.6085033072927	-274.39803314971385	8.196600796214579	3984.5273558840768	-221.00760196712233	-12.389617605890313	3999.8048314176203	-219.50088976049247
